<?xml version="1.0" encoding="utf-8"?>
<!-- Generator: Adobe Illustrator 28.0.0, SVG Export Plug-In . SVG Version: 6.00 Build 0)  -->
<svg version="1.1" id="Layer_1" xmlns="http://www.w3.org/2000/svg" xmlns:xlink="http://www.w3.org/1999/xlink" x="0px" y="0px"
	 viewBox="0 0 171.93 67.2" style="enable-background:new 0 0 171.93 67.2;" xml:space="preserve">
<style type="text/css">
	.st0{fill:#F26522;}
	.st1{fill:#808285;}
	.st2{fill:#00AEEF;}
	.st3{fill:url(#SVGID_1_);stroke:#020202;stroke-width:0.05;stroke-miterlimit:10;}
	
		.st4{fill:url(#SVGID_00000156585617929343982290000011521396562643505805_);stroke:#020202;stroke-width:0.05;stroke-miterlimit:10;}
	
		.st5{fill:url(#SVGID_00000088815366494942982770000012798880332917342599_);stroke:#020202;stroke-width:0.05;stroke-miterlimit:10;}
	
		.st6{fill:url(#SVGID_00000067196332778575752550000005512460090338503852_);stroke:#020202;stroke-width:0.05;stroke-miterlimit:10;}
	
		.st7{fill:url(#SVGID_00000012474585164049337870000011954929571041970570_);stroke:#020202;stroke-width:0.05;stroke-miterlimit:10;}
	
		.st8{fill:url(#SVGID_00000169558667988737459480000014124545524289397676_);stroke:#020202;stroke-width:0.05;stroke-miterlimit:10;}
</style>
<g>
	<path class="st0" d="M71.93,29.63c0,1.08-0.2,2.03-0.59,2.86c-0.4,0.83-0.93,1.52-1.6,2.07c-0.67,0.55-1.46,0.97-2.36,1.26
		s-1.85,0.43-2.86,0.43h-6.59v12.53h-0.79V23.29h6.91c0.91,0,1.84,0.1,2.77,0.31c0.94,0.2,1.78,0.55,2.54,1.03s1.37,1.13,1.85,1.94
		C71.69,27.38,71.93,28.4,71.93,29.63z M71.14,29.63c0-1.08-0.2-1.98-0.61-2.7c-0.41-0.72-0.94-1.3-1.58-1.73s-1.37-0.74-2.18-0.94
		c-0.8-0.19-1.6-0.29-2.39-0.29h-6.44v11.59h6.62c0.79,0,1.58-0.11,2.38-0.32c0.79-0.22,1.5-0.56,2.12-1.04
		c0.62-0.48,1.13-1.1,1.51-1.85C70.94,31.59,71.14,30.68,71.14,29.63z"/>
	<path class="st0" d="M78.45,36.57c0.24-0.77,0.58-1.45,1.03-2.05c0.44-0.6,0.95-1.11,1.53-1.53c0.58-0.42,1.2-0.74,1.87-0.95
		c0.67-0.22,1.37-0.32,2.09-0.32c1.15,0,2.11,0.2,2.88,0.61c0.77,0.41,1.38,0.95,1.84,1.62c0.46,0.67,0.78,1.43,0.97,2.27
		c0.19,0.84,0.29,1.69,0.29,2.56v10.01h-0.79v-9.94c0-0.67-0.07-1.39-0.22-2.16c-0.14-0.77-0.41-1.46-0.81-2.09
		c-0.4-0.62-0.93-1.15-1.6-1.57c-0.67-0.42-1.52-0.63-2.56-0.63c-0.91,0-1.77,0.19-2.57,0.56c-0.8,0.37-1.5,0.91-2.09,1.6
		c-0.59,0.7-1.06,1.54-1.4,2.54c-0.35,1-0.52,2.13-0.52,3.4v8.28h-0.79V21.56h0.79v15.01H78.45z"/>
	<path class="st0" d="M98.46,25.99c-0.22,0-0.41-0.08-0.58-0.25c-0.17-0.17-0.25-0.4-0.25-0.68c0-0.26,0.08-0.48,0.25-0.65
		c0.17-0.17,0.36-0.25,0.58-0.25c0.22,0,0.41,0.08,0.58,0.25c0.17,0.17,0.25,0.38,0.25,0.65c0,0.29-0.09,0.52-0.27,0.68
		C98.84,25.91,98.65,25.99,98.46,25.99z M98.06,48.78V32.22h0.79v16.56H98.06z"/>
	<path class="st0" d="M106.2,48.78V21.56h0.79v27.22H106.2z"/>
	<path class="st0" d="M130.21,40.46c0,1.3-0.21,2.48-0.63,3.56c-0.42,1.08-1.01,2.01-1.78,2.79c-0.77,0.78-1.69,1.39-2.75,1.82
		s-2.24,0.65-3.51,0.65c-1.27,0-2.44-0.22-3.49-0.65s-1.97-1.04-2.74-1.82c-0.77-0.78-1.36-1.71-1.78-2.79s-0.63-2.27-0.63-3.56
		s0.21-2.48,0.63-3.55s1.01-1.99,1.78-2.75c0.77-0.77,1.68-1.37,2.74-1.8c1.06-0.43,2.22-0.65,3.49-0.65c1.27,0,2.44,0.22,3.51,0.65
		c1.07,0.43,1.99,1.03,2.75,1.8c0.77,0.77,1.36,1.69,1.78,2.75C130,37.98,130.21,39.17,130.21,40.46z M129.42,40.46
		c0-1.1-0.18-2.15-0.54-3.13c-0.36-0.98-0.88-1.84-1.57-2.57c-0.68-0.73-1.51-1.31-2.48-1.73c-0.97-0.42-2.07-0.63-3.29-0.63
		s-2.32,0.21-3.28,0.63c-0.96,0.42-1.78,1-2.47,1.73c-0.68,0.73-1.21,1.59-1.57,2.57c-0.36,0.98-0.54,2.03-0.54,3.13
		c0,1.13,0.18,2.18,0.54,3.17c0.36,0.98,0.88,1.84,1.57,2.57c0.68,0.73,1.51,1.31,2.47,1.75c0.96,0.43,2.05,0.65,3.28,0.65
		s2.32-0.22,3.29-0.65c0.97-0.43,1.8-1.01,2.48-1.75c0.68-0.73,1.21-1.59,1.57-2.57C129.24,42.65,129.42,41.59,129.42,40.46z"/>
	<path class="st0" d="M141.48,49.1c-0.38,0.07-0.76,0.11-1.12,0.11c-1.3,0-2.22-0.37-2.77-1.1c-0.55-0.73-0.83-1.65-0.83-2.75V32.9
		h-3.6v-0.68h3.56v-4.86h0.79v4.86h4.86v0.68h-4.86v12.46c0,1.13,0.28,1.94,0.83,2.43c0.55,0.49,1.28,0.74,2.2,0.74
		c0.67,0,1.28-0.11,1.84-0.32l0.11,0.61C142.2,48.93,141.86,49.03,141.48,49.1z"/>
	<path class="st0" d="M146.41,40.32c0,1.01,0.15,2,0.45,2.99c0.3,0.98,0.76,1.87,1.37,2.65c0.61,0.78,1.39,1.41,2.32,1.89
		c0.94,0.48,2.04,0.72,3.31,0.72c1.3,0,2.45-0.26,3.46-0.77c1.01-0.52,1.88-1.27,2.63-2.25l0.58,0.5c-0.82,1.06-1.77,1.86-2.86,2.41
		c-1.09,0.55-2.36,0.83-3.8,0.83c-1.22,0-2.34-0.22-3.35-0.67c-1.01-0.44-1.88-1.06-2.61-1.85c-0.73-0.79-1.3-1.74-1.69-2.84
		s-0.59-2.3-0.59-3.6c0-1.25,0.2-2.4,0.61-3.46c0.41-1.06,0.97-1.97,1.68-2.74s1.55-1.36,2.51-1.78c0.96-0.42,2-0.63,3.1-0.63
		c1.3,0,2.43,0.23,3.39,0.68c0.96,0.46,1.76,1.06,2.4,1.8c0.64,0.74,1.11,1.59,1.43,2.54c0.31,0.95,0.47,1.91,0.47,2.9v0.68H146.41z
		 M160.42,39.63c-0.02-1.08-0.21-2.06-0.56-2.95c-0.35-0.89-0.82-1.65-1.42-2.29c-0.6-0.64-1.32-1.13-2.16-1.48
		c-0.84-0.35-1.78-0.52-2.81-0.52c-1.25,0-2.32,0.26-3.2,0.77c-0.89,0.52-1.61,1.15-2.18,1.91c-0.56,0.76-0.98,1.55-1.24,2.38
		c-0.26,0.83-0.4,1.55-0.4,2.18H160.42z"/>
</g>
<path class="st1" d="M31.45,48.78c-11.03,0-20-8.97-20-20s8.97-20,20-20s20,8.97,20,20S42.48,48.78,31.45,48.78z M31.45,12.78
	c-8.82,0-16,7.18-16,16s7.18,16,16,16s16-7.18,16-16S40.27,12.78,31.45,12.78z"/>
<path class="st1" d="M46.39,19.08c36.24-15.33,79.13-14.7,114.81,1.82c-26.87-11.48-57.4-13.62-85.82-7.43
	c-9.44,2.09-18.65,5.15-27.34,9.26L46.39,19.08L46.39,19.08z"/>
<circle class="st2" cx="31.45" cy="28.78" r="12"/>
<circle class="st2" cx="84.46" cy="10.28" r="2.5"/>
<circle class="st2" cx="102.66" cy="9.16" r="2"/>
<circle class="st2" cx="121.54" cy="10.08" r="1.5"/>
<circle class="st2" cx="139" cy="13.22" r="1"/>
<circle class="st2" cx="153.47" cy="17.73" r="0.5"/>
<circle class="st2" cx="63.75" cy="15.05" r="3"/>
<g>
	<linearGradient id="SVGID_1_" gradientUnits="userSpaceOnUse" x1="124.6119" y1="58.5605" x2="129.5441" y2="58.5605">
		<stop  offset="0" style="stop-color:#5C9FD3"/>
		<stop  offset="1" style="stop-color:#316A99"/>
	</linearGradient>
	<path class="st3" d="M129.54,56.42c0,0.36-0.07,0.68-0.2,0.95c-0.13,0.28-0.31,0.51-0.53,0.69c-0.22,0.18-0.49,0.32-0.79,0.42
		c-0.3,0.1-0.62,0.14-0.95,0.14h-2.2v4.18h-0.26v-8.5h2.3c0.3,0,0.61,0.03,0.92,0.1c0.31,0.07,0.59,0.18,0.85,0.34
		c0.25,0.16,0.46,0.38,0.62,0.65S129.54,56.02,129.54,56.42z M129.28,56.42c0-0.36-0.07-0.66-0.2-0.9
		c-0.14-0.24-0.31-0.43-0.53-0.58s-0.46-0.25-0.73-0.31c-0.27-0.06-0.53-0.1-0.8-0.1h-2.15v3.86h2.21c0.26,0,0.53-0.04,0.79-0.11
		c0.26-0.07,0.5-0.19,0.71-0.35c0.21-0.16,0.38-0.37,0.5-0.62S129.28,56.78,129.28,56.42z"/>
	
		<linearGradient id="SVGID_00000167388819594654477640000006280110365671669376_" gradientUnits="userSpaceOnUse" x1="130.0602" y1="61.5004" x2="134.6203" y2="61.5004">
		<stop  offset="0" style="stop-color:#5C9FD3"/>
		<stop  offset="1" style="stop-color:#316A99"/>
	</linearGradient>
	
		<path style="fill:url(#SVGID_00000167388819594654477640000006280110365671669376_);stroke:#020202;stroke-width:0.05;stroke-miterlimit:10;" d="
		M131.88,64.63c-0.13,0.34-0.3,0.61-0.51,0.8s-0.49,0.28-0.82,0.28c-0.07,0-0.16-0.01-0.25-0.02c-0.1-0.02-0.18-0.04-0.24-0.06
		l0.07-0.23c0.05,0.02,0.11,0.03,0.2,0.05c0.08,0.02,0.17,0.02,0.25,0.02c0.17,0,0.31-0.03,0.44-0.1c0.12-0.06,0.23-0.15,0.32-0.25
		c0.09-0.1,0.16-0.21,0.22-0.34c0.06-0.13,0.11-0.26,0.16-0.38l0.53-1.44l-2.18-5.68h0.29l2.03,5.38l1.96-5.38h0.29L131.88,64.63z"
		/>
	
		<linearGradient id="SVGID_00000153703282460769305390000000607463210483208085_" gradientUnits="userSpaceOnUse" x1="135.1481" y1="59.3105" x2="138.256" y2="59.3105">
		<stop  offset="0" style="stop-color:#FFD53D"/>
		<stop  offset="1" style="stop-color:#FEE875"/>
	</linearGradient>
	
		<path style="fill:url(#SVGID_00000153703282460769305390000000607463210483208085_);stroke:#020202;stroke-width:0.05;stroke-miterlimit:10;" d="
		M137.92,62.92c-0.13,0.02-0.25,0.04-0.37,0.04c-0.43,0-0.74-0.12-0.92-0.37c-0.18-0.24-0.28-0.55-0.28-0.92v-4.15h-1.2v-0.23h1.19
		v-1.62h0.26v1.62h1.62v0.23h-1.62v4.15c0,0.38,0.09,0.65,0.28,0.81c0.18,0.16,0.43,0.25,0.73,0.25c0.22,0,0.43-0.04,0.61-0.11
		l0.04,0.2C138.16,62.86,138.05,62.89,137.92,62.92z"/>
	
		<linearGradient id="SVGID_00000028301034618682475880000016107026535812945282_" gradientUnits="userSpaceOnUse" x1="139.7799" y1="58.2726" x2="144.2316" y2="58.2726">
		<stop  offset="0" style="stop-color:#FFD53D"/>
		<stop  offset="1" style="stop-color:#FEE875"/>
	</linearGradient>
	
		<path style="fill:url(#SVGID_00000028301034618682475880000016107026535812945282_);stroke:#020202;stroke-width:0.05;stroke-miterlimit:10;" d="
		M140.07,58.74c0.08-0.26,0.19-0.48,0.34-0.68c0.15-0.2,0.32-0.37,0.51-0.51c0.19-0.14,0.4-0.25,0.62-0.32
		c0.22-0.07,0.46-0.11,0.7-0.11c0.38,0,0.7,0.07,0.96,0.2c0.26,0.14,0.46,0.32,0.61,0.54s0.26,0.48,0.32,0.76
		c0.06,0.28,0.1,0.56,0.1,0.85v3.34h-0.26V59.5c0-0.22-0.02-0.46-0.07-0.72c-0.05-0.26-0.14-0.49-0.27-0.7
		c-0.13-0.21-0.31-0.38-0.53-0.52c-0.22-0.14-0.51-0.21-0.85-0.21c-0.3,0-0.59,0.06-0.86,0.19c-0.27,0.12-0.5,0.3-0.7,0.53
		c-0.2,0.23-0.35,0.51-0.47,0.85c-0.12,0.33-0.17,0.71-0.17,1.13v2.76h-0.26v-9.07h0.26v5H140.07z"/>
	
		<linearGradient id="SVGID_00000111897752103072890770000016477998579953685436_" gradientUnits="userSpaceOnUse" x1="146.1276" y1="60.0485" x2="151.8996" y2="60.0485">
		<stop  offset="0" style="stop-color:#FFD53D"/>
		<stop  offset="1" style="stop-color:#FEE875"/>
	</linearGradient>
	
		<path style="fill:url(#SVGID_00000111897752103072890770000016477998579953685436_);stroke:#020202;stroke-width:0.05;stroke-miterlimit:10;" d="
		M151.9,60.04c0,0.43-0.07,0.83-0.21,1.19c-0.14,0.36-0.34,0.67-0.59,0.93c-0.26,0.26-0.56,0.46-0.92,0.61s-0.75,0.22-1.17,0.22
		c-0.42,0-0.81-0.07-1.16-0.22s-0.66-0.35-0.91-0.61c-0.26-0.26-0.45-0.57-0.59-0.93c-0.14-0.36-0.21-0.76-0.21-1.19
		s0.07-0.83,0.21-1.18c0.14-0.36,0.34-0.66,0.59-0.92c0.26-0.26,0.56-0.46,0.91-0.6s0.74-0.22,1.16-0.22c0.42,0,0.81,0.07,1.17,0.22
		s0.66,0.34,0.92,0.6c0.26,0.26,0.45,0.56,0.59,0.92C151.83,59.21,151.9,59.6,151.9,60.04z M151.64,60.04
		c0-0.37-0.06-0.72-0.18-1.04c-0.12-0.33-0.29-0.61-0.52-0.86s-0.5-0.44-0.83-0.58c-0.32-0.14-0.69-0.21-1.1-0.21
		s-0.77,0.07-1.09,0.21c-0.32,0.14-0.59,0.33-0.82,0.58s-0.4,0.53-0.52,0.86s-0.18,0.68-0.18,1.04c0,0.38,0.06,0.73,0.18,1.06
		s0.29,0.61,0.52,0.86s0.5,0.44,0.82,0.58c0.32,0.14,0.68,0.22,1.09,0.22s0.77-0.07,1.1-0.22c0.32-0.14,0.6-0.34,0.83-0.58
		s0.4-0.53,0.52-0.86C151.58,60.76,151.64,60.41,151.64,60.04z"/>
	
		<linearGradient id="SVGID_00000169518120675494951120000011832866862623369401_" gradientUnits="userSpaceOnUse" x1="153.8439" y1="59.9645" x2="158.3556" y2="59.9645">
		<stop  offset="0" style="stop-color:#FFD53D"/>
		<stop  offset="1" style="stop-color:#FEE875"/>
	</linearGradient>
	
		<path style="fill:url(#SVGID_00000169518120675494951120000011832866862623369401_);stroke:#020202;stroke-width:0.05;stroke-miterlimit:10;" d="
		M154.53,58.06c0.15-0.2,0.32-0.37,0.52-0.51c0.19-0.14,0.4-0.25,0.62-0.32c0.22-0.07,0.46-0.11,0.7-0.11c0.38,0,0.7,0.07,0.96,0.2
		c0.26,0.14,0.46,0.32,0.61,0.54s0.26,0.48,0.32,0.76c0.06,0.28,0.1,0.56,0.1,0.85v3.34h-0.26V59.5c0-0.22-0.02-0.46-0.07-0.72
		c-0.05-0.26-0.14-0.49-0.27-0.7s-0.31-0.38-0.53-0.52c-0.22-0.14-0.51-0.21-0.85-0.21c-0.3,0-0.59,0.06-0.86,0.19
		s-0.5,0.3-0.7,0.53c-0.2,0.23-0.35,0.51-0.47,0.85c-0.12,0.33-0.17,0.71-0.17,1.13v2.76h-0.26v-4.13c0-0.09,0-0.2-0.01-0.32
		c0-0.13-0.01-0.26-0.01-0.39c0-0.13-0.01-0.26-0.02-0.38c-0.01-0.12-0.02-0.22-0.02-0.3h0.26c0.01,0.08,0.01,0.18,0.02,0.3
		c0,0.12,0.01,0.25,0.01,0.39c0,0.14,0.01,0.28,0.01,0.41c0,0.13,0.01,0.25,0.01,0.35h0.02C154.26,58.48,154.38,58.26,154.53,58.06z
		"/>
</g>
</svg>
