<?xml version="1.0" standalone="no"?>
<!DOCTYPE svg PUBLIC "-//W3C//DTD SVG 20010904//EN"
 "http://www.w3.org/TR/2001/REC-SVG-20010904/DTD/svg10.dtd">
<svg version="1.0" xmlns="http://www.w3.org/2000/svg"
 width="700.000000pt" height="700.000000pt" viewBox="0 0 700.000000 700.000000"
 preserveAspectRatio="xMidYMid meet">
<metadata>
Created by potrace 1.14, written by Peter Selinger 2001-2017
</metadata>
<g transform="translate(0.000000,700.000000) scale(0.100000,-0.100000)"
fill="#000000" stroke="none">
<path d="M3338 6395 c-2 -1 -39 -5 -83 -9 -147 -12 -189 -18 -305 -41 -94 -19
-102 -21 -175 -40 -33 -8 -70 -18 -82 -20 -11 -3 -77 -25 -146 -49 -428 -151
-812 -397 -1122 -718 -124 -128 -147 -155 -249 -293 -324 -436 -518 -942 -564
-1475 -13 -147 -4 -593 13 -620 2 -3 6 -27 9 -55 3 -27 8 -61 11 -75 2 -14 10
-50 16 -80 90 -459 335 -958 638 -1305 51 -58 268 -274 321 -320 70 -59 256
-196 345 -252 282 -178 695 -341 985 -388 19 -3 58 -10 85 -15 131 -24 268
-34 465 -34 187 0 295 7 437 29 140 23 156 25 162 29 3 2 22 7 41 10 50 8 263
70 356 105 258 95 573 268 758 415 127 102 194 162 301 270 130 131 220 235
275 316 8 12 20 28 25 34 40 43 176 271 244 406 130 261 228 575 267 855 3 22
7 51 10 65 11 66 18 211 18 365 0 207 -6 284 -40 495 -16 99 -61 280 -99 395
-143 435 -371 810 -690 1130 -147 148 -166 166 -280 256 -328 259 -717 445
-1135 543 -58 13 -123 27 -145 30 -22 3 -49 7 -60 10 -11 2 -49 7 -85 11 -36
4 -74 9 -85 12 -21 4 -432 12 -437 8z m409 -588 c4 -3 35 -8 68 -11 33 -4 67
-9 75 -11 8 -2 30 -7 47 -10 319 -54 666 -208 963 -429 108 -80 329 -296 412
-402 214 -271 398 -659 453 -954 3 -14 7 -36 10 -50 29 -143 39 -252 39 -430
0 -228 -15 -359 -65 -565 -16 -66 -33 -129 -38 -140 -5 -11 -21 -56 -36 -100
-31 -93 -134 -308 -196 -410 -330 -542 -892 -938 -1509 -1064 -98 -20 -151
-28 -280 -41 -78 -7 -373 -5 -425 4 -16 2 -55 8 -85 11 -30 3 -62 8 -71 11
-10 3 -30 6 -45 9 -87 11 -378 97 -398 116 -6 5 -17 9 -25 9 -31 0 -301 141
-416 218 -435 289 -748 694 -923 1197 -36 103 -85 313 -97 416 -3 26 -8 58
-11 70 -9 43 -12 362 -4 439 12 112 21 183 25 200 2 8 7 31 10 50 15 88 78
314 105 375 5 11 21 49 36 85 25 62 111 234 137 275 77 123 159 237 225 315
274 326 642 576 1047 709 83 27 164 51 180 54 17 3 62 12 100 20 68 15 100 20
215 33 30 3 56 8 58 9 5 5 410 -3 419 -8z"/>
<path d="M3378 5235 c-2 -1 -37 -6 -78 -9 -168 -16 -377 -76 -558 -162 -320
-153 -596 -417 -772 -738 -79 -145 -161 -382 -185 -541 -4 -22 -8 -51 -11 -65
-12 -70 -11 -326 2 -435 76 -645 520 -1198 1144 -1423 181 -65 336 -92 550
-97 390 -8 755 109 1068 342 378 282 615 687 687 1173 17 115 13 351 -9 500
-23 153 -93 364 -172 516 -262 506 -752 851 -1319 929 -49 7 -341 15 -347 10z"/>
</g>
</svg>
